# xmcd
# Track frame offsets:
# 150
# 18812
# 34575
# 47860
# 59375
# 79125
# 94405
# 109195
# 125865
# 139237
# 157055
# 174937
# 210845
# 225537
# 248550
#
# Disc length: 3693 seconds
# Revision: 0
# Processed by: cddbd v1.4PL0 Copyright (c) Steve Scherf et al.
# Submitted via: VisiTrax 2.9.6.190 - For more info visit www.synapsa.com
#
DISCID=c40e6b0f
DTITLE=Garth Brooks - The Thunder Rolls In Dallas
DYEAR=1994
DGENRE=Country
TTITLE0=Not Counting You
TTITLE1=Rodeo
TTITLE2=Two Of a kind
TTITLE3=We Bury The Hatchet
TTITLE4=The Thunder Rolls
TTITLE5=The River
TTITLE6=Much Too Young
TTITLE7=What She`s Doing Now
TTITLE8=Papa Loves Mama
TTITLE9=If Tomorrow Never Comes
TTITLE10=Shameless
TTITLE11=Friends In Low Places
TTITLE12=The Dance
TTITLE13=You May Be Right
TTITLE14=Keep Your Hands To Yourself
EXTD=
EXTT0=
EXTT1=
EXTT2=
EXTT3=
EXTT4=
EXTT5=
EXTT6=
EXTT7=
EXTT8=
EXTT9=
EXTT10=
EXTT11=
EXTT12=
EXTT13=
EXTT14=
PLAYORDER=
